# xmcd
#
# Track frame offsets:
#  150
#  23228
#  37276
#  57033
#  75742
#  97062
#  127211
#  148560
#  168658
#  184760
#
# Disc length: 2744 seconds
#
# Revision: 1
# Processed by: cddbd v1.5.1PL2 Copyright (c) Steve Scherf et al.
# Submitted via: Collectorz.com_Music_Collector 6.11
#
DISCID=900ab60a
DTITLE=Tom Principato - Tom Principato - "Guitar Gumbo"
DYEAR=2006
DGENRE=Blues
TTITLE0=Louisiana (Been Callin' Me)
TTITLE1=If Love Is Blind
TTITLE2=They Took My Money
TTITLE3=Drinkin' Wine Spo-Dee-O-Dee
TTITLE4=Return Of The Voodoo Thing
TTITLE5=Tango'd Up In The Blues
TTITLE6=Hey Now Baby
TTITLE7=Helping Hand
TTITLE8=Jambalaya
TTITLE9=Tipsy
EXTD=
EXTT0=
EXTT1=
EXTT2=
EXTT3=
EXTT4=
EXTT5=
EXTT6=
EXTT7=
EXTT8=
EXTT9=
PLAYORDER=
